Normalized EMG Linear Envelopes
nRows=138
nColumns=4

endheader
time	 med_gas_r	  soleus_r	 tib_ant_r	
3	  0.061369	  0.031896	  0.012182	
3.0625	  0.068666	  0.035180	  0.013959	
3.125	  0.074681	  0.037645	  0.015100	
3.1875	  0.077479	  0.038889	  0.015248	
3.25	  0.076151	  0.038798	  0.014693	
3.3125	  0.072064	  0.037633	  0.014188	
3.375	  0.067493	  0.036314	  0.014173	
3.4375	  0.063804	  0.035770	  0.014354	
3.5	  0.061266	  0.035857	  0.014163	
3.5625	  0.060065	  0.035696	  0.013452	
3.625	  0.061127	  0.035003	  0.012661	
3.6875	  0.065459	  0.034353	  0.012326	
3.75	  0.072518	  0.034313	  0.012588	
3.8125	  0.079876	  0.034949	  0.013179	
3.875	  0.084458	  0.035953	  0.013735	
3.9375	  0.084091	  0.036911	  0.014074	
4	  0.079110	  0.037473	  0.014204	
4.0625	  0.072485	  0.037321	  0.014127	
4.125	  0.067469	  0.036290	  0.013824	
4.1875	  0.065564	  0.034586	  0.013374	
4.25	  0.066520	  0.032724	  0.012876	
4.3125	  0.069405	  0.031425	  0.012385	
4.375	  0.073635	  0.031423	  0.011990	
4.4375	  0.078635	  0.032806	  0.011817	
4.5	  0.082572	  0.034575	  0.012000	
4.5625	  0.083051	  0.035449	  0.012664	
4.625	  0.079854	  0.035193	  0.013674	
4.6875	  0.075901	  0.034629	  0.014531	
4.75	  0.074757	  0.034388	  0.014864	
4.8125	  0.077661	  0.034390	  0.014888	
4.875	  0.082985	  0.034424	  0.014978	
4.9375	  0.087771	  0.034422	  0.015079	
5	  0.089699	  0.034077	  0.014866	
5.0625	  0.088035	  0.032812	  0.014191	
5.125	  0.082733	  0.030178	  0.013133	
5.1875	  0.073731	  0.026128	  0.011858	
5.25	  0.063370	  0.022117	  0.010766	
5.3125	  0.059746	  0.023164	  0.010888	
5.375	  0.077158	  0.038647	  0.014169	
5.4375	  0.132603	  0.079586	  0.023120	
5.5	  0.233239	  0.149851	  0.038923	
5.5625	  0.357241	  0.235082	  0.058528	
5.625	  0.457816	  0.306910	  0.075027	
5.6875	  0.503270	  0.346463	  0.083263	
5.75	  0.504789	  0.358329	  0.084128	
5.8125	  0.494201	  0.358541	  0.081986	
5.875	  0.489917	  0.358072	  0.080002	
5.9375	  0.492951	  0.358409	  0.079168	
6	  0.497175	  0.353463	  0.079101	
6.0625	  0.492657	  0.334874	  0.078250	
6.125	  0.470408	  0.300665	  0.075043	
6.1875	  0.431728	  0.259674	  0.069704	
6.25	  0.390905	  0.227287	  0.064505	
6.3125	  0.367666	  0.216953	  0.062405	
6.375	  0.376282	  0.233702	  0.065199	
6.4375	  0.417486	  0.272980	  0.071919	
6.5	  0.475962	  0.323225	  0.079218	
6.5625	  0.528963	  0.369764	  0.084248	
6.625	  0.562874	  0.400212	  0.086770	
6.6875	  0.578980	  0.409340	  0.088186	
6.75	  0.585717	  0.400185	  0.089727	
6.8125	  0.592243	  0.382017	  0.091967	
6.875	  0.603524	  0.366580	  0.094917	
6.9375	  0.614703	  0.361985	  0.098024	
7	  0.616047	  0.367419	  0.100446	
7.0625	  0.606936	  0.376796	  0.101950	
7.125	  0.598892	  0.388155	  0.103365	
7.1875	  0.602896	  0.403752	  0.105066	
7.25	  0.619418	  0.421644	  0.105675	
7.3125	  0.640772	  0.433925	  0.103967	
7.375	  0.659137	  0.434542	  0.101092	
7.4375	  0.674221	  0.427128	  0.099381	
7.5	  0.690918	  0.422376	  0.099735	
7.5625	  0.705867	  0.425093	  0.100914	
7.625	  0.706084	  0.428655	  0.101286	
7.6875	  0.684445	  0.425244	  0.100777	
7.75	  0.645006	  0.414459	  0.099909	
7.8125	  0.595091	  0.399848	  0.097697	
7.875	  0.542698	  0.383983	  0.092842	
7.9375	  0.496775	  0.368717	  0.086392	
8	  0.465990	  0.356595	  0.081342	
8.0625	  0.461303	  0.350572	  0.080100	
8.125	  0.492203	  0.352936	  0.083102	
8.1875	  0.551587	  0.365009	  0.089035	
8.25	  0.612660	  0.385595	  0.095471	
8.3125	  0.648618	  0.407451	  0.099891	
8.375	  0.650337	  0.419420	  0.101386	
8.4375	  0.624607	  0.415931	  0.101433	
8.5	  0.586680	  0.402001	  0.102183	
8.5625	  0.556827	  0.387531	  0.104174	
8.625	  0.551241	  0.379269	  0.106145	
8.6875	  0.568599	  0.378747	  0.106439	
8.75	  0.588389	  0.382578	  0.104017	
8.8125	  0.586892	  0.382338	  0.098758	
8.875	  0.558221	  0.370635	  0.091743	
8.9375	  0.518022	  0.348708	  0.085009	
9	  0.484765	  0.323497	  0.080297	
9.0625	  0.463933	  0.300801	  0.078167	
9.125	  0.451634	  0.284398	  0.078212	
9.1875	  0.444490	  0.275768	  0.079430	
9.25	  0.442391	  0.272567	  0.080617	
9.3125	  0.444790	  0.271434	  0.081087	
9.375	  0.448796	  0.271612	  0.080917	
9.4375	  0.453458	  0.273726	  0.080416	
9.5	  0.461417	  0.277041	  0.079793	
9.5625	  0.473377	  0.278668	  0.079501	
9.625	  0.485249	  0.275302	  0.080371	
9.6875	  0.492412	  0.267317	  0.082817	
9.75	  0.493134	  0.260205	  0.085907	
9.8125	  0.486798	  0.259555	  0.087967	
9.875	  0.472056	  0.264480	  0.088075	
9.9375	  0.447383	  0.266301	  0.085916	
10	  0.409870	  0.253968	  0.080372	
10.0625	  0.354923	  0.222210	  0.070104	
10.125	  0.283820	  0.176383	  0.056284	
10.1875	  0.209761	  0.129561	  0.043188	
10.25	  0.149186	  0.092828	  0.034794	
10.3125	  0.109533	  0.068490	  0.031394	
10.375	  0.088597	  0.053167	  0.030081	
10.4375	  0.079892	  0.043831	  0.028246	
10.5	  0.076612	  0.039129	  0.026103	
10.5625	  0.074554	  0.037935	  0.025262	
10.625	  0.072561	  0.038719	  0.025797	
10.6875	  0.070655	  0.040024	  0.026224	
10.75	  0.068899	  0.041030	  0.025504	
10.8125	  0.067415	  0.041350	  0.023607	
10.875	  0.066565	  0.040762	  0.020885	
10.9375	  0.066720	  0.039586	  0.017980	
11	  0.067736	  0.038643	  0.015691	
11.0625	  0.069174	  0.038237	  0.014387	
11.125	  0.070988	  0.037905	  0.013892	
11.1875	  0.073155	  0.037479	  0.013837	
11.25	  0.074887	  0.037390	  0.013922	
11.3125	  0.075081	  0.037674	  0.014027	
11.375	  0.073254	  0.037891	  0.014124	
11.4375	  0.069405	  0.038177	  0.014198	
11.5	  0.063617	  0.039208	  0.014355	
11.5625	  0.056485	  0.041049	  0.014680	
